<svg xmlns="http://www.w3.org/2000/svg" xmlns:xlink="http://www.w3.org/1999/xlink" viewBox="0 0 183 58.49"><defs><style>.cls-1{fill:url(#Degradado_sin_nombre_3);}.cls-2{fill:url(#Degradado_sin_nombre_3-2);}.cls-3{fill:url(#Degradado_sin_nombre_3-3);}.cls-4{fill:#1f140f;}</style><linearGradient id="Degradado_sin_nombre_3" x1="30.36" y1="57.49" x2="46" y2="41.85" gradientUnits="userSpaceOnUse"><stop offset="0" stop-color="#f19800"/><stop offset="1" stop-color="#e4472e"/></linearGradient><linearGradient id="Degradado_sin_nombre_3-2" x1="13.81" y1="40.93" x2="29.45" y2="25.29" xlink:href="#Degradado_sin_nombre_3"/><linearGradient id="Degradado_sin_nombre_3-3" x1="24.08" y1="51.2" x2="39.72" y2="35.57" xlink:href="#Degradado_sin_nombre_3"/></defs><g id="Layer_2" data-name="Layer 2"><g id="Capa_1" data-name="Capa 1"><path class="cls-1" d="M30.31,51.28l-2.45,7.21a9.66,9.66,0,0,0,3.9-1.13l12.33-7.12H31.76A1.54,1.54,0,0,0,30.31,51.28Z"/><path class="cls-2" d="M34.78,12.69h7a1.52,1.52,0,0,1,1.43,1L53.45,40.51A7.79,7.79,0,0,0,53.61,39V19.52a11,11,0,0,0-5-8.59L31.76,1.18a11,11,0,0,0-9.91,0L5,10.93a11,11,0,0,0-5,8.59V39a11,11,0,0,0,5,8.59l12.56,7.25L33.35,13.67A1.54,1.54,0,0,1,34.78,12.69Z"/><path class="cls-3" d="M39.67,29.17a1.53,1.53,0,0,0-2.92,0L33.08,40.54a1.53,1.53,0,0,0,1.46,2h7.2a1.53,1.53,0,0,0,1.46-2Z"/><path class="cls-4" d="M69.63,36.61,81,7h5.54L97.88,36.61H90.63L88.33,30h-9.2l-2.25,6.63ZM83.75,14.27l-3.54,11h7Z"/><path class="cls-4" d="M113.88,20.44a12.63,12.63,0,0,0-4.36.79,5.54,5.54,0,0,0-2.85,2.25V36.61H100V14.73h6.13v4.42a9.4,9.4,0,0,1,2.93-3.44,7,7,0,0,1,3.77-1.31,7.3,7.3,0,0,1,1,0Z"/><path class="cls-4" d="M116.63,39.9a13.71,13.71,0,0,0,1.68.42,9.06,9.06,0,0,0,1.36.12,2.17,2.17,0,0,0,1.77-.85,7.42,7.42,0,0,0,1.14-3l-8.29-21.88h6.84l5.12,16.17,4.38-16.17h6.2l-8.37,25.42a8.81,8.81,0,0,1-3.11,4.39,8.37,8.37,0,0,1-5.06,1.69,12.53,12.53,0,0,1-1.83-.14,10.3,10.3,0,0,1-1.83-.48Z"/><path class="cls-4" d="M149.92,37a12.87,12.87,0,0,1-4.94-.89,11,11,0,0,1-3.71-2.44A10.52,10.52,0,0,1,139,30.13a11.47,11.47,0,0,1-.79-4.23,12.57,12.57,0,0,1,.79-4.48,11,11,0,0,1,2.29-3.69,10.75,10.75,0,0,1,3.69-2.5,12.82,12.82,0,0,1,5-.92,12.68,12.68,0,0,1,5,.92,10.92,10.92,0,0,1,3.66,2.48,10.38,10.38,0,0,1,2.27,3.61,11.9,11.9,0,0,1,.77,4.29c0,.39,0,.77,0,1.14s-.07.7-.12,1H145.25a4.54,4.54,0,0,0,1.6,3.36,5.13,5.13,0,0,0,3.28,1.14,5.92,5.92,0,0,0,2.81-.71,3.64,3.64,0,0,0,1.81-1.91l5.67,1.58a10.22,10.22,0,0,1-4,4.21A12.47,12.47,0,0,1,149.92,37Zm4.62-13.41a5,5,0,0,0-1.5-3.29,4.86,4.86,0,0,0-6.44,0,5.09,5.09,0,0,0-1.47,3.27Z"/><path class="cls-4" d="M173.75,37a21.7,21.7,0,0,1-2.85-.2,29.33,29.33,0,0,1-2.94-.57,20.6,20.6,0,0,1-2.79-.87,14.17,14.17,0,0,1-2.34-1.15l2.63-4.5a22.22,22.22,0,0,0,4.21,1.92,12.7,12.7,0,0,0,3.91.67,4.44,4.44,0,0,0,2.23-.46,1.46,1.46,0,0,0,.77-1.34,1.48,1.48,0,0,0-1-1.35A24.91,24.91,0,0,0,172,28c-1.47-.39-2.72-.77-3.75-1.16a9.35,9.35,0,0,1-2.48-1.32,4.23,4.23,0,0,1-1.35-1.64,5.19,5.19,0,0,1-.42-2.17,6.69,6.69,0,0,1,.69-3,6.78,6.78,0,0,1,1.89-2.33,9.15,9.15,0,0,1,2.86-1.5,11.42,11.42,0,0,1,3.6-.55,16.91,16.91,0,0,1,4.69.69,24.67,24.67,0,0,1,4.69,1.9l-2.63,4.21a21.73,21.73,0,0,0-3.65-1.65,9.93,9.93,0,0,0-3.1-.52,4.34,4.34,0,0,0-2.06.44,1.46,1.46,0,0,0-.81,1.39,1.32,1.32,0,0,0,.2.77,2,2,0,0,0,.69.59,5.88,5.88,0,0,0,1.27.5l2,.52a41.18,41.18,0,0,1,4.08,1.25A11,11,0,0,1,181,25.79a4.55,4.55,0,0,1,1.5,1.78,5.54,5.54,0,0,1,.46,2.37,6.6,6.6,0,0,1-.64,2.94,6.32,6.32,0,0,1-1.86,2.23,8.92,8.92,0,0,1-2.92,1.41A13.36,13.36,0,0,1,173.75,37Z"/><path class="cls-4" d="M143.55,50.84v.57h-4.37V44.9h4.29v.57h-3.66v2.35H143v.54h-3.19v2.48Z"/><path class="cls-4" d="M145.43,46.09v5.32h-.64V44.9h.5l4.31,5.42V44.91h.63v6.5h-.55Z"/><path class="cls-4" d="M156.25,50.84v.57h-4.37V44.9h4.28v.57h-3.65v2.35h3.19v.54h-3.19v2.48Z"/><path class="cls-4" d="M157.49,51.41V44.9h2.74a1.72,1.72,0,0,1,.78.18,2.21,2.21,0,0,1,.62.47,2,2,0,0,1,.39.66,1.92,1.92,0,0,1,.15.74,2.2,2.2,0,0,1-.11.68,2.05,2.05,0,0,1-.3.59,1.92,1.92,0,0,1-.46.44,1.63,1.63,0,0,1-.59.24l1.6,2.51h-.72L160.05,49h-1.93v2.4Zm.63-3h2.14a1.14,1.14,0,0,0,.52-.12,1.45,1.45,0,0,0,.4-.34,1.63,1.63,0,0,0,.25-.47,1.77,1.77,0,0,0,.09-.56,1.56,1.56,0,0,0-.1-.57,1.83,1.83,0,0,0-.28-.47,1.51,1.51,0,0,0-.43-.32,1.11,1.11,0,0,0-.5-.12h-2.09Z"/><path class="cls-4" d="M168.25,50.47a2.75,2.75,0,0,1-2.08,1,2.64,2.64,0,0,1-1.22-.28,3.47,3.47,0,0,1-1-.75,3.43,3.43,0,0,1-.63-1.06,3.17,3.17,0,0,1-.23-1.21,3.5,3.5,0,0,1,.22-1.25,3.43,3.43,0,0,1,.62-1,3.11,3.11,0,0,1,1-.72,2.71,2.71,0,0,1,1.2-.27,3.35,3.35,0,0,1,.87.1,2.4,2.4,0,0,1,.69.3,2,2,0,0,1,.54.45,2.46,2.46,0,0,1,.38.57l-.49.33a2.11,2.11,0,0,0-.83-.89,2.38,2.38,0,0,0-1.17-.28,2.07,2.07,0,0,0-1,.22,2.44,2.44,0,0,0-.74.61,2.85,2.85,0,0,0-.48.87,3.2,3.2,0,0,0-.16,1,2.82,2.82,0,0,0,.19,1,2.54,2.54,0,0,0,1.29,1.46,2.23,2.23,0,0,0,1,.22,2.34,2.34,0,0,0,1.06-.26,3.42,3.42,0,0,0,1-.82V48.71h-1.44v-.5h2v3.2h-.55Z"/><path class="cls-4" d="M170.15,51.41v-6.5h.64v6.5Z"/><path class="cls-4" d="M171.75,51.41l2.72-6.51H175l2.72,6.51H177l-.85-2h-2.92l-.83,2Zm3-5.75-1.33,3.21H176Z"/><path class="cls-4" d="M182.38,46.12a2,2,0,0,0-.74-.5,2.68,2.68,0,0,0-1-.19,2,2,0,0,0-1.27.32,1.1,1.1,0,0,0-.39.89,1,1,0,0,0,.11.48.92.92,0,0,0,.33.32,2.69,2.69,0,0,0,.56.24c.23.07.5.13.81.2s.67.16.94.24a2.85,2.85,0,0,1,.7.34,1.37,1.37,0,0,1,.45.51,1.49,1.49,0,0,1,.16.73,1.73,1.73,0,0,1-.17.78,1.52,1.52,0,0,1-.49.55,2.09,2.09,0,0,1-.74.33,4,4,0,0,1-.94.1,3.82,3.82,0,0,1-2.61-.94l.31-.52a2.81,2.81,0,0,0,1,.63,3.24,3.24,0,0,0,1.34.27,2.32,2.32,0,0,0,1.22-.28,1,1,0,0,0,.44-.85,1,1,0,0,0-.12-.51,1.07,1.07,0,0,0-.37-.36,3,3,0,0,0-.62-.26l-.86-.22a9.34,9.34,0,0,1-.9-.25,2.13,2.13,0,0,1-.64-.32,1.17,1.17,0,0,1-.4-.46,1.47,1.47,0,0,1-.13-.66,1.85,1.85,0,0,1,.17-.8,1.53,1.53,0,0,1,.48-.59,2.08,2.08,0,0,1,.73-.36,3.45,3.45,0,0,1,.94-.12,3,3,0,0,1,1.15.2,3.08,3.08,0,0,1,.92.55Z"/></g></g></svg>